<?xml version="1.0" encoding="UTF-8"?>
<svg id="Calque_1" data-name="Calque 1" xmlns="http://www.w3.org/2000/svg" viewBox="0 0 841.89 235.14">
  <defs>
    <style>
      .cls-1 { fill: #040c88; }
    </style>
  </defs>
  <path class="cls-1" d="M546.43,97.2v-59.5l-1.5-1.5h-15.5v61h-16v16h14.5c1.43.88,1.38,1.99,1.55,3.45,2.33,19.85-8.59,53.15,21.55,56.44,20.87,2.28,31.54-12.07,29.4-31.89h-15c1.43,9.73-1.94,18.12-13.29,14.79-1.36-.4-5.71-5.29-5.71-6.29v-36.5h29v-16h-29Z"/>
  <path class="cls-1" d="M589.14,44.42c-15.43,3.51-13.1,32.87,8.35,28.34,18.13-3.83,12.69-33.12-8.35-28.34Z"/>
  <path class="cls-1" d="M321.44,116.19c-14.88-56.94-92.95-35.25-80.54,23.05,9.48,44.52,71.82,45.97,80.09.93l-16.55-2.98c-5.19,24.64-38.53,24.93-45.73,1.23-6.48-21.34,8.93-45.85,32.42-36.42,8.08,3.24,9.53,9.48,13.96,16.04l16.34-1.85Z"/>
  <path class="cls-1" d="M508.43,172.2v-54.5c0-2-2.37-10.39-3.23-12.77-9.17-25.44-44.34-29.11-60.76-8.73-1.97-10.34-14.99-12.44-24.01-12v15l8,2.5v70.5h18v-54.5c0-.55,2.57-5.8,3.17-6.83,9.36-15.78,35.32-14.22,40.36,4.29.3,1.08,1.46,7.81,1.46,8.54v48.5h17Z"/>
  <path class="cls-1" d="M703.43,172.2v-56.5c0-21.24-22.65-35.1-42.05-32.05-9.16,1.44-14.62,5.88-21.44,11.57-4.06-9.64-14.96-11.69-24.51-11.01v15c2.65,0,9,1.37,9,4.5v68.5h17v-53.5c0-.87,2.95-6.97,3.76-8.24,8.08-12.66,29.57-14.46,37.45-.96.85,1.45,3.79,9.09,3.79,10.21v52.5h17Z"/>
  <path class="cls-1" d="M606.43,172.2v-72.5c0-.38-2.45-6.13-2.97-7.03-4.29-7.45-15.11-8.99-23.03-8.47v15c2.75-.9,9,1.54,9,4.5v68.5h17Z"/>
  <path class="cls-1" d="M204.01,176.78c-39.56,44.06-109.95,39.45-144.99-7.67C18.62,114.79,49.05,36.04,114.4,21.67c88.9-19.55,150.84,86.93,89.62,155.12ZM177.43,111.2c2.04,30.55-27.87,49.17-55.78,40.28-2.39-.76-8.43-3.35-10.2-4.8-1.19-.98-1.27-.92-.05-2l85.04-53.99c2.09-1.84-2.79-8.65-4.21-10.8-22.63-34.3-71.66-39.89-102.34-12.72-34.42,30.49-25.86,85.13,15.15,104.9,45.08,21.74,99.68-10.05,97.38-60.88h-25Z"/>
  <path class="cls-1" d="M809.43,128.2c-.66,41.41-52.82,58.89-82.52,33.02-22.67-19.74-18.71-56.97,7.51-71.54,24.47-13.6,59.2-6,71.02,20.5l-63.98,39.52c18.45,14.47,49.97,3.35,50.98-21.5h17ZM779.43,105.21c-23.89-13.74-55.82,1.1-48.99,30.99l48.99-30.99Z"/>
  <path class="cls-1" d="M396.43,172.2v-10.99s-13.65,8.85-13.65,8.85c-38.13,14.22-68.08-23.64-54.83-59.83,10.19-27.84,46.46-36.7,67.47-15.02v-10h17.01v87h-16ZM364.19,100.47c-31.75,4.52-27.6,57.16,5.69,55.77,35.22-1.46,32.43-61.2-5.69-55.77Z"/>
  <path class="cls-1" d="M321.44,116.19l-16.34,1.85c-4.44-6.56-5.89-12.8-13.96-16.04-23.49-9.43-38.9,15.08-32.42,36.42,7.2,23.7,40.53,23.41,45.73-1.23l16.55,2.98c-8.27,45.04-70.62,43.59-80.09-.93-12.41-58.29,65.66-79.99,80.54-23.05Z"/>
  <path class="cls-1" d="M95.44,127.2c-11.15-40.15,35.46-65.83,66.97-42.5l-66.97,42.5Z"/>
</svg>
