<?xml version="1.0" encoding="UTF-8"?>
<svg id="Calque_2" data-name="Calque 2" xmlns="http://www.w3.org/2000/svg" viewBox="0 0 188.04 188.24">
  <defs>
    <style>
      .cls-1 {
        fill: #040c88;
        stroke: #1d1d1b;
        stroke-miterlimit: 10;
        stroke-width: .25px;
      }
    </style>
  </defs>
  <g id="Calque_1-2" data-name="Calque 1">
    <path class="cls-1" d="M163.34,157.6c-39.56,44.06-109.95,39.45-144.99-7.67C-22.06,95.61,8.38,16.85,73.72,2.48c88.9-19.55,150.84,86.93,89.62,155.12ZM136.76,92.02c2.04,30.55-27.87,49.17-55.78,40.28-2.39-.76-8.43-3.35-10.2-4.8-1.19-.98-1.27-.92-.05-2l85.04-53.99c2.09-1.84-2.79-8.65-4.21-10.8-22.63-34.3-71.66-39.89-102.34-12.72-34.42,30.49-25.86,85.13,15.15,104.9,45.08,21.74,99.68-10.05,97.38-60.88h-25Z"/>
    <path class="cls-1" d="M54.77,108.02c-11.15-40.15,35.46-65.83,66.97-42.5l-66.97,42.5Z"/>
  </g>
</svg>
